<svg width="20" height="20" viewBox="0 0 20 20" fill="none" xmlns="http://www.w3.org/2000/svg">
<path d="M6.93594 0H1.82922C0.820625 0 0 0.820625 0 1.82922V6.93598C0 7.94461 0.820625 8.7652 1.82922 8.7652H6.93598C7.94461 8.7652 8.7652 7.94457 8.7652 6.93594V1.82922C8.7652 0.820625 7.94461 0 6.93594 0ZM7.14941 6.93594C7.14941 7.05363 7.05363 7.14941 6.93594 7.14941H1.82922C1.71156 7.14941 1.61578 7.05363 1.61578 6.93594V1.82922C1.61578 1.71156 1.71156 1.61578 1.82922 1.61578H6.93594C7.05363 1.61578 7.14941 1.71152 7.14941 1.82922V6.93594Z" fill="#63719C"/>
<path d="M18.1707 0H13.0639C12.0553 0 11.2347 0.820625 11.2347 1.82922V6.93594C11.2347 7.94461 12.0553 8.7652 13.0639 8.7652H18.1707C19.1793 8.7652 19.9999 7.94457 19.9999 6.93594V1.82922C19.9999 0.820625 19.1793 0 18.1707 0ZM18.3841 6.93594C18.3841 7.05363 18.2884 7.14941 18.1707 7.14941H13.0639C12.9463 7.14941 12.8505 7.05363 12.8505 6.93594V1.82922C12.8505 1.71156 12.9463 1.61578 13.0639 1.61578H18.1707C18.2883 1.61578 18.3841 1.71152 18.3841 1.82922V6.93594Z" fill="#63719C"/>
<path d="M18.1707 11.2348H13.0639C12.0553 11.2348 11.2347 12.0554 11.2347 13.064V18.1708C11.2347 19.1794 12.0553 20 13.0639 20H18.1707C19.1793 20 19.9999 19.1794 19.9999 18.1708V13.064C19.9999 12.0554 19.1793 11.2348 18.1707 11.2348ZM18.3841 18.1708C18.3841 18.2884 18.2884 18.3842 18.1707 18.3842H13.0639C12.9463 18.3842 12.8505 18.2885 12.8505 18.1708V13.064C12.8505 12.9464 12.9463 12.8506 13.0639 12.8506H18.1707C18.2883 12.8506 18.3841 12.9464 18.3841 13.064V18.1708Z" fill="#63719C"/>
<path d="M6.93594 11.2348H1.82922C0.820625 11.2348 0 12.0554 0 13.064V18.1708C0 19.1794 0.820625 20 1.82922 20H6.93598C7.94461 20 8.7652 19.1794 8.7652 18.1708V13.064C8.7652 12.0554 7.94461 11.2348 6.93594 11.2348ZM7.14941 18.1708C7.14941 18.2884 7.05363 18.3842 6.93594 18.3842H1.82922C1.71156 18.3842 1.61578 18.2885 1.61578 18.1708V13.064C1.61578 12.9464 1.71152 12.8506 1.82922 12.8506H6.93594C7.05363 12.8506 7.14941 12.9464 7.14941 13.064V18.1708Z" fill="#63719C"/>
</svg>
