<svg width="20" height="20" viewBox="0 0 20 20" fill="none" xmlns="http://www.w3.org/2000/svg">
<path d="M9.97793 12.2709C4.38281 12.2709 0 14.8635 0 18.1732V19.1921C0 19.6383 0.361719 20 0.807891 20C1.25406 20 1.61578 19.6383 1.61578 19.1921V18.1732C1.61578 15.8496 5.44516 13.8866 9.97793 13.8866C14.5107 13.8866 18.3401 15.8496 18.3401 18.1732V19.1921C18.3401 19.6383 18.7018 20 19.148 20C19.5942 20 19.9559 19.6383 19.9559 19.1921V18.1732C19.9559 14.8635 15.573 12.2709 9.97793 12.2709Z" fill="#63719C"/>
<path d="M14.8525 4.16715C14.6977 3.12309 14.2213 2.17672 13.4749 1.43035C12.7286 0.683984 11.7822 0.207695 10.7381 0.0528516C10.2629 -0.0176172 9.78085 -0.0176172 9.3055 0.0528516C6.64187 0.447852 4.79621 2.93621 5.19117 5.59984C5.3825 6.89016 6.06488 8.02875 7.11257 8.80582C7.96312 9.43668 8.97167 9.76801 10.0115 9.76797C10.2526 9.76797 10.4953 9.75016 10.7381 9.71414C13.4018 9.31914 15.2474 6.83078 14.8525 4.16715ZM10.5012 8.11582C9.63796 8.24391 8.77624 8.02805 8.07523 7.50805C7.37417 6.98809 6.91761 6.22621 6.7896 5.36285C6.52531 3.58051 7.76031 1.91547 9.54261 1.65117C9.70167 1.62762 9.86179 1.61582 10.0219 1.61582C10.1821 1.61582 10.3423 1.62762 10.5012 1.65117C11.9353 1.86383 13.0416 2.9702 13.2543 4.40422C13.5185 6.18652 12.2835 7.85156 10.5012 8.11582Z" fill="#63719C"/>
</svg>
