<svg width="20" height="20" viewBox="0 0 20 20" fill="none" xmlns="http://www.w3.org/2000/svg">
<path d="M14.4558 2.48023C12.8564 0.88082 10.7299 0 8.46801 0C6.20609 0 4.07961 0.88082 2.48023 2.48023C0.88082 4.07961 0 6.20609 0 8.46797C0 10.7299 0.88082 12.8564 2.48023 14.4557C4.07961 16.0551 6.20613 16.936 8.46801 16.936C10.7299 16.936 12.8564 16.0551 14.4558 14.4557C16.0552 12.8564 16.936 10.7299 16.936 8.46797C16.936 6.20609 16.0552 4.07961 14.4558 2.48023ZM8.46797 15.3202C4.68965 15.3202 1.61578 12.2463 1.61578 8.46797C1.61578 4.68965 4.68969 1.61578 8.46801 1.61578C12.2463 1.61578 15.3202 4.68965 15.3202 8.46797C15.3202 12.2463 12.2463 15.3202 8.46797 15.3202Z" fill="#63719C"/>
<path d="M19.7633 18.6208L14.4523 13.3098C14.1368 12.9943 13.6253 12.9943 13.3098 13.3098C12.9943 13.6254 12.9943 14.1369 13.3098 14.4524L18.6207 19.7634C18.7785 19.9211 18.9853 20 19.192 20C19.3988 20 19.6056 19.9211 19.7633 19.7634C20.0788 19.4479 20.0788 18.9363 19.7633 18.6208Z" fill="#63719C"/>
</svg>
