<svg width="33" height="33" viewBox="0 0 33 33" fill="none" xmlns="http://www.w3.org/2000/svg">
<path d="M33 5.54297C33 3.766 31.5543 2.32031 29.7773 2.32031H27.7793V1.28906C27.7793 0.577113 27.2022 0 26.4902 0H6.44531C4.31295 0 2.57812 1.73482 2.57812 3.86719V5.76469C1.07779 6.29688 0 7.72967 0 9.41016C0 11.0908 1.07759 12.5244 2.57812 13.0565V13.4991C1.07779 14.0313 0 15.464 0 17.1445C0 18.8251 1.07759 20.2588 2.57812 20.7908V21.2335C1.07779 21.7656 0 23.1984 0 24.8789C0 26.5595 1.07759 27.9932 2.57812 28.5252V29.1328C2.57812 31.2652 4.31295 33 6.44531 33H26.4902C27.2022 33 27.7793 32.4229 27.7793 31.7109V30.4219H29.7773C30.4893 30.4219 31.0664 29.8448 31.0664 29.1328C31.0664 28.4209 30.4893 27.8438 29.7773 27.8438H27.7793V21.9141H29.7773C30.1327 21.9141 30.4219 22.2032 30.4219 22.5586V23.8477C30.4219 24.5596 30.999 25.1367 31.7109 25.1367C32.4229 25.1367 33 24.5596 33 23.8477V22.5586C33 21.8337 32.7593 21.164 32.3537 20.625C32.7593 20.086 33 19.4163 33 18.6914V14.0508C33 13.3259 32.7593 12.6562 32.3537 12.1172C32.7593 11.5782 33 10.9085 33 10.1836V5.54297ZM29.7773 4.89844C30.1327 4.89844 30.4219 5.18757 30.4219 5.54297V10.1836C30.4219 10.539 30.1327 10.8281 29.7773 10.8281H27.7793V4.89844H29.7773ZM25.2012 30.4219H6.44531C5.73452 30.4219 5.15625 29.8436 5.15625 29.1328V27.457C5.15625 26.7451 4.57914 26.168 3.86719 26.168C3.1564 26.168 2.57812 25.5897 2.57812 24.8789C2.57812 24.1681 3.1564 23.5898 3.86719 23.5898H6.44531C7.15726 23.5898 7.73438 23.0127 7.73438 22.3008C7.73438 21.5888 7.15726 21.0117 6.44531 21.0117H5.15625V19.7227C5.15625 19.0107 4.57914 18.4336 3.86719 18.4336C3.1564 18.4336 2.57812 17.8553 2.57812 17.1445C2.57812 16.4337 3.1564 15.8555 3.86719 15.8555H6.44531C7.15726 15.8555 7.73438 15.2784 7.73438 14.5664C7.73438 13.8545 7.15726 13.2773 6.44531 13.2773H5.15625V11.9883C5.15625 11.2763 4.57914 10.6992 3.86719 10.6992C3.1564 10.6992 2.57812 10.1209 2.57812 9.41016C2.57812 8.69937 3.1564 8.12109 3.86719 8.12109H6.44531C7.15726 8.12109 7.73438 7.54398 7.73438 6.83203C7.73438 6.12008 7.15726 5.54297 6.44531 5.54297H5.15625V3.86719C5.15625 3.1564 5.73452 2.57812 6.44531 2.57812H25.2012V30.4219ZM27.7793 19.3359V13.4062H29.7773C30.1327 13.4062 30.4219 13.6954 30.4219 14.0508V18.6914C30.4219 19.0468 30.1327 19.3359 29.7773 19.3359H27.7793ZM12.9976 19.9309C10.938 17.8698 9.80719 15.3798 9.79694 13.3189C9.7912 12.1615 10.1387 11.1394 10.8736 10.4045L10.8896 10.3902C11.5158 9.82813 12.4746 9.86268 13.0587 10.4684C14.2289 11.682 14.9331 12.8957 13.7551 14.1018L12.7209 15.1438C12.7209 15.1438 13.3212 16.4918 14.8458 18.0164L14.9193 18.0898C16.4439 19.6144 17.7919 20.2148 17.7919 20.2148L18.8339 19.1805C20.04 18.0025 21.2537 18.7067 22.4673 19.877C23.073 20.461 23.1075 21.4198 22.5455 22.046L22.5311 22.062C21.7962 22.7968 20.7741 23.1444 19.6168 23.1387L19.6096 23.1316C17.5487 23.1213 15.0588 21.9905 12.9976 19.9309Z" fill="white"/>
</svg>
