<svg width="33" height="33" viewBox="0 0 33 33" fill="none" xmlns="http://www.w3.org/2000/svg">
<path d="M33 3.90344V11.3123C33 13.4647 31.2489 15.2157 29.0966 15.2157C28.7982 15.2157 28.5558 15.4584 28.5558 15.7565V17.3291C28.5558 18.0648 28.1164 18.7221 27.4369 19.0036C27.2113 19.097 26.9751 19.1423 26.7415 19.1423C26.2707 19.1423 25.8092 18.9583 25.4618 18.6106C25.4565 18.6053 25.4509 18.5998 25.4456 18.5942L22.9622 16.0201C22.6394 15.6984 22.4415 15.5579 22.1517 15.4438C21.4891 15.1837 21.163 14.4355 21.4234 13.7728C21.6834 13.1102 22.4317 12.7839 23.0944 13.0442C23.8733 13.3501 24.3711 13.7829 24.7931 14.2049C24.7983 14.2104 24.8039 14.2157 24.8092 14.2212L25.9927 15.4481C26.1481 13.8725 27.4807 12.6373 29.0966 12.6373C29.8274 12.6373 30.4219 12.0429 30.4219 11.3123V3.90344C30.4219 3.17255 29.8274 2.57812 29.0966 2.57812H23.332C22.62 2.57812 22.043 2.00107 22.043 1.28906C22.043 0.577057 22.62 0 23.332 0H29.0966C31.2489 0 33 1.75106 33 3.90344ZM9.79688 9.08789C10.5089 9.08789 11.0859 8.51083 11.0859 7.79883C11.0859 7.08682 10.5089 6.50977 9.79688 6.50977C9.08487 6.50977 8.50781 7.08682 8.50781 7.79883C8.50781 8.51083 9.08487 9.08789 9.79688 9.08789ZM14.3086 9.08789C15.0206 9.08789 15.5977 8.51083 15.5977 7.79883C15.5977 7.08682 15.0206 6.50977 14.3086 6.50977C13.5966 6.50977 13.0195 7.08682 13.0195 7.79883C13.0195 8.51083 13.5966 9.08789 14.3086 9.08789ZM5.34961 9.08789C6.06161 9.08789 6.63867 8.51083 6.63867 7.79883C6.63867 7.08682 6.06161 6.50977 5.34961 6.50977C4.6376 6.50977 4.06055 7.08682 4.06055 7.79883C4.06055 8.51083 4.6376 9.08789 5.34961 9.08789ZM33 31.1455V31.7109C33 32.4229 32.4229 33 31.7109 33C30.9989 33 30.4219 32.4229 30.4219 31.7109V31.1455C30.4219 30.8866 30.3149 30.6427 30.1281 30.476C29.474 29.8927 28.3397 29.1973 26.6514 29.1973C24.963 29.1973 23.8288 29.8927 23.1747 30.476C22.9879 30.6427 22.8809 30.8866 22.8809 31.1455V31.7109C22.8809 32.4229 22.3038 33 21.5918 33C20.8798 33 20.3027 32.4229 20.3027 31.7109V31.1455C20.3027 30.8882 20.195 30.6452 20.0074 30.4788C19.3478 29.8942 18.2037 29.1973 16.5 29.1973C14.7963 29.1973 13.6522 29.8942 12.9928 30.4788C12.805 30.6452 12.6973 30.8882 12.6973 31.1455V31.7109C12.6973 32.4229 12.1202 33 11.4082 33C10.6962 33 10.1191 32.4229 10.1191 31.7109V31.1455C10.1191 30.8866 10.0121 30.6427 9.82533 30.476C9.17123 29.8927 8.037 29.1973 6.34863 29.1973C4.66026 29.1973 3.52604 29.8927 2.87194 30.476C2.68513 30.6427 2.57812 30.8866 2.57812 31.1455V31.7109C2.57812 32.4229 2.00107 33 1.28906 33C0.577057 33 0 32.4229 0 31.7109V31.1455C0 30.1525 0.421211 29.2071 1.15613 28.552C1.63625 28.1237 2.28532 27.6559 3.11213 27.2876C2.77325 26.7128 2.57812 26.0441 2.57812 25.3301C2.57812 23.1976 4.31282 21.4629 6.44531 21.4629C8.5778 21.4629 10.3125 23.1976 10.3125 25.3301C10.3125 26.0731 10.1015 26.7674 9.73695 27.3571C10.4213 27.6804 10.9774 28.0693 11.4107 28.4384C11.8652 28.0537 12.4536 27.6469 13.1829 27.3155C12.834 26.735 12.6328 26.0557 12.6328 25.3301C12.6328 23.1976 14.3675 21.4629 16.5 21.4629C18.6325 21.4629 20.3672 23.1976 20.3672 25.3301C20.3672 26.0557 20.166 26.735 19.8171 27.3155C20.5464 27.6469 21.1348 28.0537 21.5893 28.4384C22.0437 28.0515 22.6329 27.6426 23.3635 27.3105C23.0166 26.7307 22.8164 26.0534 22.8164 25.3301C22.8164 23.1976 24.5511 21.4629 26.6836 21.4629C28.8161 21.4629 30.5508 23.1976 30.5508 25.3301C30.5508 26.063 30.3458 26.7491 29.9903 27.3337C30.7686 27.6945 31.3839 28.1413 31.8441 28.552C32.5788 29.2071 33 30.1522 33 31.1455ZM5.15625 25.3301C5.15625 26.0408 5.73457 26.6191 6.44531 26.6191C7.15606 26.6191 7.73438 26.0408 7.73438 25.3301C7.73438 24.6193 7.15606 24.041 6.44531 24.041C5.73457 24.041 5.15625 24.6193 5.15625 25.3301ZM16.5 26.6191C17.2107 26.6191 17.7891 26.0408 17.7891 25.3301C17.7891 24.6193 17.2107 24.041 16.5 24.041C15.7893 24.041 15.2109 24.6193 15.2109 25.3301C15.2109 26.0408 15.7893 26.6191 16.5 26.6191ZM25.3945 25.3301C25.3945 26.0408 25.9728 26.6191 26.6836 26.6191C27.3943 26.6191 27.9727 26.0408 27.9727 25.3301C27.9727 24.6193 27.3943 24.041 26.6836 24.041C25.9728 24.041 25.3945 24.6193 25.3945 25.3301ZM0 11.3123V3.90344C0 1.75106 1.75106 0 3.90344 0H15.7548C17.9071 0 19.6582 1.75106 19.6582 3.90344V11.3123C19.6582 13.4647 17.9071 15.2157 15.7548 15.2157H11.9911C11.2539 15.2157 10.5605 15.5015 10.0376 16.0204L7.55436 18.5942C7.54907 18.5998 7.54353 18.6053 7.53825 18.6108C7.19055 18.9583 6.72906 19.1423 6.2585 19.1426C6.0246 19.1426 5.7887 19.097 5.56311 19.0036C4.88358 18.7221 4.44424 18.065 4.44424 17.3293V15.7568C4.44424 15.4584 4.20179 15.2157 3.90344 15.2157C1.75106 15.2155 0 13.4644 0 11.3123ZM2.57812 11.3123C2.57812 12.0429 3.17255 12.6376 3.90344 12.6376C5.5193 12.6376 6.85192 13.8725 7.00726 15.4481L8.19083 14.2212C8.19612 14.2157 8.20166 14.2104 8.2072 14.2049C9.2178 13.1943 10.5615 12.6376 11.9911 12.6376H15.7548C16.4856 12.6376 17.0801 12.0429 17.0801 11.3123V3.90344C17.0801 3.17255 16.4856 2.57812 15.7548 2.57812H3.90344C3.17255 2.57812 2.57812 3.17255 2.57812 3.90344V11.3123Z" fill="white"/>
</svg>
