<svg width="27" height="33" viewBox="0 0 27 33" fill="none" xmlns="http://www.w3.org/2000/svg">
<path d="M13.8951 33H13.1049C12.6531 33 12.2329 32.7734 11.9915 32.3997C10.5479 30.1643 8.74016 28.2268 6.99198 26.3531C5.20903 24.442 3.52493 22.637 2.22859 20.5682C0.731513 18.1791 0.00250248 15.7689 0 13.2002C0.00414884 9.67138 1.41028 6.35708 3.95925 3.86493C6.50841 1.37259 9.89676 0 13.5 0C17.1032 0 20.4916 1.37259 23.0408 3.86487C25.5898 6.35701 26.9959 9.67132 27 13.1974C26.9972 16.0861 26.11 18.6972 24.2081 21.4175C23.7973 22.0049 22.9777 22.1552 22.3773 21.7533C21.777 21.3513 21.6234 20.549 22.0342 19.9615C23.6226 17.6896 24.3634 15.5403 24.3657 13.1976C24.3589 7.34327 19.4845 2.57812 13.5 2.57812C7.51546 2.57812 2.6411 7.34327 2.63418 13.2004C2.63879 17.8638 5.5576 20.9923 8.9372 24.6146C10.4916 26.2807 12.0911 27.995 13.5 29.9666C14.9089 27.995 16.5082 26.2808 18.0626 24.6148L18.2661 24.3967C18.7564 23.8709 19.5895 23.8336 20.1268 24.3135C20.6641 24.7934 20.7021 25.6088 20.2118 26.1346L20.0078 26.3533C18.2597 28.2269 16.4521 30.1645 15.0085 32.3997C14.7671 32.7734 14.3469 33 13.8951 33ZM14.8171 19.7871V12.8262C14.8171 12.1142 14.2274 11.5371 13.5 11.5371C12.7726 11.5371 12.1829 12.1142 12.1829 12.8262V19.7871C12.1829 20.4991 12.7726 21.0762 13.5 21.0762C14.2274 21.0762 14.8171 20.4991 14.8171 19.7871ZM13.5 7.08984C12.7726 7.08984 12.1829 7.66696 12.1829 8.37891C12.1829 9.09086 12.7726 9.66797 13.5 9.66797C14.2274 9.66797 14.8171 9.09086 14.8171 8.37891C14.8171 7.66696 14.2274 7.08984 13.5 7.08984Z" fill="white"/>
</svg>
