<svg width="33" height="33" viewBox="0 0 33 33" fill="none" xmlns="http://www.w3.org/2000/svg">
<path d="M6.44531 19.3359C7.15724 19.3359 7.73438 18.7588 7.73438 18.0469C7.73438 17.3349 7.15724 16.7578 6.44531 16.7578C5.73338 16.7578 5.15625 17.3349 5.15625 18.0469C5.15625 18.7588 5.73338 19.3359 6.44531 19.3359Z" fill="white"/>
<path d="M31.7109 21.7207C32.4229 21.7207 33 21.1436 33 20.4316V14.6953C33 14.2303 32.7495 13.8013 32.3446 13.5727C31.9396 13.3442 31.4429 13.3513 31.0448 13.5917L25.8456 16.7299C25.8358 14.9112 24.8788 13.3135 23.4447 12.4028C24.9161 11.1028 25.8457 9.203 25.8457 7.08984C25.8457 3.1805 22.6652 0 18.7559 0C14.8577 0 11.6845 3.16239 11.6665 7.05646C11.1007 4.39093 8.72908 2.38477 5.89746 2.38477C2.64561 2.38477 0 5.03037 0 8.28223C0 10.0358 0.76957 11.6127 1.98838 12.6939C0.779496 13.6383 0 15.1083 0 16.7578V27.8438C0 30.6869 2.31309 33 5.15625 33H20.6895C23.5326 33 25.8457 30.6869 25.8457 27.8438V27.7896L31.0521 30.8853C31.4506 31.1222 31.9454 31.1269 32.3483 30.8978C32.7511 30.6687 33 30.2408 33 29.7773V26.877C33 26.165 32.4229 25.5879 31.7109 25.5879C30.999 25.5879 30.4219 26.165 30.4219 26.877V27.5112L25.2155 24.4155C24.817 24.1785 24.3222 24.1739 23.9193 24.403C23.5164 24.6321 23.2676 25.06 23.2676 25.5234V27.8438C23.2676 29.2653 22.111 30.4219 20.6895 30.4219H5.15625C3.73467 30.4219 2.57812 29.2653 2.57812 27.8438V16.7578C2.57812 15.3362 3.73467 14.1797 5.15625 14.1797H20.6895C22.111 14.1797 23.2676 15.3362 23.2676 16.7578V19.0137C23.2676 19.4787 23.518 19.9076 23.923 20.1363C24.328 20.3648 24.8246 20.3576 25.2228 20.1172L30.4219 16.9791V20.4316C30.4219 21.1436 30.999 21.7207 31.7109 21.7207ZM5.89746 11.6016C4.06719 11.6016 2.57812 10.1125 2.57812 8.28223C2.57812 6.45195 4.06719 4.96289 5.89746 4.96289C7.72774 4.96289 9.2168 6.45195 9.2168 8.28223C9.2168 10.1125 7.72774 11.6016 5.89746 11.6016ZM10.7695 11.6016C11.3907 10.6926 11.7646 9.60203 11.7931 8.42718C12.0212 9.61705 12.5472 10.7023 13.2908 11.6016H10.7695ZM18.7559 11.6016C16.2681 11.6016 14.2441 9.57761 14.2441 7.08984C14.2441 4.60208 16.2681 2.57812 18.7559 2.57812C21.2436 2.57812 23.2676 4.60208 23.2676 7.08984C23.2676 9.57761 21.2436 11.6016 18.7559 11.6016Z" fill="white"/>
</svg>
