<svg width="28" height="28" viewBox="0 0 28 28" fill="none" xmlns="http://www.w3.org/2000/svg">
<path d="M14 17.1792C6.14951 17.1792 0 20.8089 0 25.4425V26.869C0 27.4936 0.507526 28 1.13355 28C1.75957 28 2.2671 27.4936 2.2671 26.869V25.4425C2.2671 22.1895 7.64008 19.4413 14 19.4413C20.3599 19.4413 25.7329 22.1895 25.7329 25.4425V26.869C25.7329 27.4936 26.2404 28 26.8665 28C27.4925 28 28 27.4936 28 26.869V25.4425C28 20.8089 21.8505 17.1792 14 17.1792Z" fill="white"/>
<path d="M20.8397 5.83401C20.6225 4.37232 19.9541 3.04741 18.9069 2.00249C17.8597 0.957578 16.5318 0.290773 15.0668 0.0739922C14.4 -0.0246641 13.7237 -0.0246641 13.0567 0.0739922C9.31941 0.626992 6.72977 4.11069 7.28394 7.83978C7.55239 9.64622 8.50984 11.2403 9.97985 12.3281C11.1733 13.2114 12.5884 13.6752 14.0474 13.6752C14.3856 13.6752 14.7262 13.6502 15.0668 13.5998C18.8042 13.0468 21.3939 9.56309 20.8397 5.83401ZM14.7344 11.3621C13.5232 11.5415 12.3141 11.2393 11.3306 10.5113C10.3469 9.78332 9.7063 8.7167 9.5267 7.50799C9.15586 5.01271 10.8887 2.68166 13.3894 2.31164C13.6126 2.27866 13.8373 2.26215 14.062 2.26215C14.2867 2.26215 14.5114 2.27866 14.7345 2.31164C16.7466 2.60936 18.2989 4.15827 18.5973 6.16591C18.9679 8.66113 17.2351 10.9922 14.7344 11.3621Z" fill="white"/>
</svg>
