<svg width="33" height="33" viewBox="0 0 33 33" fill="none" xmlns="http://www.w3.org/2000/svg">
<path d="M29.1328 25.2656C28.4989 25.2656 27.9004 25.42 27.3719 25.6916L24.4887 22.8083C25.8623 21.0724 26.6836 18.8805 26.6836 16.5C26.6836 14.156 25.8872 11.9948 24.5511 10.2717L27.4666 7.35647C27.9714 7.59842 28.5366 7.73438 29.1328 7.73438C29.8448 7.73438 30.4219 7.15732 30.4219 6.44531C30.4219 5.73331 29.8448 5.15625 29.1328 5.15625C28.4221 5.15625 27.8438 4.57793 27.8438 3.86719C27.8438 3.15644 28.4221 2.57812 29.1328 2.57812C29.8436 2.57812 30.4219 3.15644 30.4219 3.86719C30.4219 4.57919 30.9989 5.15625 31.7109 5.15625C32.4229 5.15625 33 4.57919 33 3.86719C33 1.7347 31.2653 0 29.1328 0C27.0003 0 25.2656 1.7347 25.2656 3.86719C25.2656 4.46338 25.4016 5.0286 25.6435 5.5334L22.7283 8.4489C21.0052 7.11301 18.844 6.31641 16.5 6.31641C14.1195 6.31641 11.9274 7.13768 10.1917 8.51134L7.30838 5.62807C7.58004 5.0996 7.73438 4.5014 7.73438 3.86719C7.73438 1.7347 5.99968 0 3.86719 0C1.7347 0 0 1.7347 0 3.86719C0 5.99968 1.7347 7.73438 3.86719 7.73438C4.42511 7.73438 4.95559 7.61453 5.43521 7.40103L8.38671 10.3525C7.08833 12.0623 6.31641 14.1925 6.31641 16.5C6.31641 18.844 7.11275 21.0052 8.4489 22.728L5.5334 25.6435C5.0286 25.4016 4.46338 25.2656 3.86719 25.2656C1.7347 25.2656 0 27.0003 0 29.1328C0 31.2653 1.7347 33 3.86719 33C4.57919 33 5.15625 32.4229 5.15625 31.7109C5.15625 30.9989 4.57919 30.4219 3.86719 30.4219C3.15644 30.4219 2.57812 29.8436 2.57812 29.1328C2.57812 28.4221 3.15644 27.8438 3.86719 27.8438C4.57793 27.8438 5.15625 28.4221 5.15625 29.1328C5.15625 29.8448 5.73331 30.4219 6.44531 30.4219C7.15732 30.4219 7.73438 29.8448 7.73438 29.1328C7.73438 28.5366 7.59842 27.9714 7.35647 27.4666L10.272 24.5511C11.9948 25.887 14.156 26.6836 16.5 26.6836C18.8075 26.6836 20.938 25.9117 22.6475 24.6133L25.599 27.5648C25.3855 28.0444 25.2656 28.5749 25.2656 29.1328C25.2656 31.2653 27.0003 33 29.1328 33C29.8448 33 30.4219 32.4229 30.4219 31.7109C30.4219 30.9989 29.8448 30.4219 29.1328 30.4219C28.4221 30.4219 27.8438 29.8436 27.8438 29.1328C27.8438 28.4221 28.4221 27.8438 29.1328 27.8438C29.8436 27.8438 30.4219 28.4221 30.4219 29.1328C30.4219 29.8448 30.9989 30.4219 31.7109 30.4219C32.4229 30.4219 33 29.8448 33 29.1328C33 27.0003 31.2653 25.2656 29.1328 25.2656ZM24.1055 16.5C24.1055 18.3112 23.4687 19.9764 22.4078 21.2839C21.8937 20.016 20.983 18.9497 19.8299 18.24C20.4077 17.5136 20.7539 16.5957 20.7539 15.5977C20.7539 13.2519 18.8457 11.3438 16.5 11.3438C14.1543 11.3438 12.2461 13.2519 12.2461 15.5977C12.2461 16.5957 12.5923 17.5136 13.1701 18.24C12.017 18.9497 11.1063 20.016 10.5922 21.2839C9.53126 19.9764 8.89453 18.3112 8.89453 16.5C8.89453 12.3063 12.3063 8.89453 16.5 8.89453C20.6937 8.89453 24.1055 12.3063 24.1055 16.5ZM16.5 17.2734C15.576 17.2734 14.8242 16.5217 14.8242 15.5977C14.8242 14.6737 15.576 13.9219 16.5 13.9219C17.424 13.9219 18.1758 14.6737 18.1758 15.5977C18.1758 16.5217 17.424 17.2734 16.5 17.2734ZM2.57812 3.86719C2.57812 3.15644 3.15644 2.57812 3.86719 2.57812C4.57793 2.57812 5.15625 3.15644 5.15625 3.86719C5.15625 4.57793 4.57793 5.15625 3.86719 5.15625C3.15644 5.15625 2.57812 4.57793 2.57812 3.86719ZM12.7476 23.1132C13.0178 21.2846 14.5974 19.8765 16.5 19.8765C18.4026 19.8765 19.9822 21.2846 20.2524 23.1132C19.1443 23.7444 17.8636 24.1055 16.5 24.1055C15.1364 24.1055 13.8557 23.7444 12.7476 23.1132Z" fill="white"/>
</svg>
