<svg width="8" height="13" viewBox="0 0 8 13" fill="none" xmlns="http://www.w3.org/2000/svg">
<path d="M7.78279 5.99274L1.72295 0.207681C1.5828 0.0737718 1.3957 0 1.1962 0C0.996706 0 0.809609 0.0737718 0.669453 0.207681L0.223188 0.633613C-0.0671998 0.911155 -0.0671998 1.36224 0.223188 1.63936L5.31178 6.4973L0.217542 11.3606C0.0773851 11.4945 0 11.6731 0 11.8634C0 12.054 0.0773851 12.2325 0.217542 12.3665L0.663807 12.7923C0.804074 12.9262 0.99106 13 1.19056 13C1.39005 13 1.57715 12.9262 1.71731 12.7923L7.78279 7.00198C7.92328 6.86764 8.00044 6.68829 8 6.49762C8.00044 6.30622 7.92328 6.12697 7.78279 5.99274Z" fill="#BAC7CF"/>
</svg>
