<svg width="22" height="17" viewBox="0 0 22 17" fill="none" xmlns="http://www.w3.org/2000/svg">
<path d="M21.1113 7.60842H0.88868C0.397891 7.60842 0 8.00761 0 8.50002C0 8.99246 0.397891 9.39162 0.88868 9.39162H21.1113C21.6021 9.39162 22 8.99246 22 8.50002C22 8.00761 21.6021 7.60842 21.1113 7.60842Z" fill="white"/>
<path d="M2.14578 8.5L9.10083 1.52204C9.44789 1.17384 9.44789 0.609317 9.10083 0.261117C8.75377 -0.0870391 8.1911 -0.0870391 7.84404 0.261117L0.260569 7.86952C-0.0864893 8.21772 -0.0864893 8.78224 0.260569 9.13044L7.84404 16.7388C8.01755 16.913 8.24502 17 8.47246 17C8.69989 17 8.92737 16.913 9.10088 16.7388C9.44793 16.3906 9.44793 15.8261 9.10088 15.4779L2.14578 8.5Z" fill="white"/>
</svg>
