<svg width="23" height="22" viewBox="0 0 23 22" fill="none" xmlns="http://www.w3.org/2000/svg">
<path d="M12.3142 9.99948L12.3142 1.10153C12.3145 0.548944 11.8664 0.100838 11.3138 0.101074C10.7609 0.101074 10.3133 0.548708 10.3133 1.10153V9.99948L1.41513 9.99971C0.862306 9.99971 0.414673 10.4473 0.414673 11.0002C0.414437 11.5528 0.862542 12.0009 1.41513 12.0006L10.3133 12.0004L10.3131 20.8986C10.3128 21.4512 10.7609 21.8993 11.3135 21.899C11.5897 21.8988 11.8399 21.7868 12.0208 21.6059C12.2017 21.425 12.3137 21.1747 12.3137 20.8983L12.314 12.0001H21.2119C21.4883 12.0001 21.7386 11.8881 21.9195 11.7072C22.1004 11.5263 22.2124 11.2761 22.2124 10.9997C22.2126 10.4471 21.7645 9.99901 21.2119 9.99924L12.3142 9.99948Z" fill="white"/>
</svg>
