<svg width="19" height="20" viewBox="0 0 19 20" fill="none" xmlns="http://www.w3.org/2000/svg">
<path d="M17.3536 13.7881C16.9074 13.7881 16.5457 14.1498 16.5457 14.596V17.3536C16.5457 17.9219 16.0834 18.3841 15.5152 18.3841H2.64629C2.07805 18.3841 1.61578 17.9218 1.61578 17.3536V14.596C1.61578 14.1498 1.25406 13.7881 0.807891 13.7881C0.361719 13.7881 0 14.1498 0 14.596V17.3536C0 18.8128 1.18715 20 2.64633 20H15.5153C16.9745 20 18.1616 18.8128 18.1616 17.3536V14.596C18.1615 14.1498 17.7998 13.7881 17.3536 13.7881Z" fill="#0F86FF"/>
<path d="M13.329 3.91345L9.65214 0.236616C9.33663 -0.0788525 8.82511 -0.0788916 8.5096 0.236616L4.83276 3.91345C4.51725 4.22892 4.51725 4.74044 4.83276 5.05595C5.14823 5.37146 5.65979 5.37146 5.97526 5.05595L9.08081 1.95041L12.1864 5.05595C12.3441 5.21369 12.5509 5.29259 12.7577 5.29259C12.9645 5.29259 13.1712 5.21369 13.329 5.05599C13.6445 4.74048 13.6445 4.22896 13.329 3.91345Z" fill="#0F86FF"/>
<path d="M9.08082 1.71722e-05C8.63461 1.71722e-05 8.27293 0.361736 8.27293 0.807908V13.6769C8.27293 14.1231 8.63465 14.4847 9.08082 14.4847C9.52703 14.4847 9.88871 14.1231 9.88871 13.6769V0.807908C9.88871 0.361736 9.52703 1.71722e-05 9.08082 1.71722e-05Z" fill="#0F86FF"/>
</svg>
