<svg width="230" height="203" viewBox="0 0 230 203" fill="none" xmlns="http://www.w3.org/2000/svg">
<path fill-rule="evenodd" clip-rule="evenodd" d="M113.612 176.019C112.856 175.638 112.073 175.312 111.269 175.045L110.237 174.684C105.382 179.693 103.653 189.183 114.505 191.465C106.973 187.903 108.2 180.945 113.612 176.019Z" fill="#252B3E"/>
<path fill-rule="evenodd" clip-rule="evenodd" d="M113.305 171.344C106.944 168.783 104.545 162.939 109.539 157.707L109.343 157.651C107.757 157.205 106.23 156.57 104.796 155.759C100.444 161.909 101.755 171.065 111.882 174.461C121.368 177.633 123.739 186.929 114.532 191.465C126.808 188.849 125.106 176.075 113.305 171.344Z" fill="#252B3E"/>
<path fill-rule="evenodd" clip-rule="evenodd" d="M116.151 152.781C108.73 151.083 98.6306 145.935 106.805 136.556L105.661 136.361C103.786 136.037 101.965 135.456 100.249 134.636C92.7719 147.41 101.309 154.729 109.065 156.928C114.533 158.486 131.858 161.158 116.681 172.123C117.856 172.816 118.942 173.647 119.917 174.6C132.22 165.611 127.282 155.314 116.151 152.781Z" fill="#252B3E"/>
<path fill-rule="evenodd" clip-rule="evenodd" d="M120.391 130.099C111.966 127.483 91.2093 129.153 104.182 112.733C101.511 112.391 98.9005 111.679 96.4263 110.618C86.7734 125.229 96.4821 134.051 106.247 135.749C114.309 137.141 134.424 138.17 118.996 152.809C120.822 153.42 122.523 154.353 124.018 155.564C137.437 143.514 130.267 133.161 120.391 130.099Z" fill="#252B3E"/>
<path fill-rule="evenodd" clip-rule="evenodd" d="M122.874 105.052C119.024 104.44 115.202 104.44 110.487 104.607C100.053 104.968 91.2931 95.8678 102.983 85.2923C98.3514 84.513 93.7761 83.5946 90.7352 81.9526C79.3247 98.8178 90.6236 114.375 114.086 112.316C126.445 111.23 137.549 122.112 123.014 130.294C125.445 131.301 127.605 132.864 129.319 134.858C145.221 122.891 134.034 106.805 122.874 105.052Z" fill="#252B3E"/>
<path fill-rule="evenodd" clip-rule="evenodd" d="M135.29 80.3945C123.07 71.9062 113.278 77.6671 100.165 73.576C87.0531 69.485 82.8404 55.9037 96.7896 51.8405C99.9142 51.5622 107.196 56.4325 111.436 50.282C112.217 49.141 112.273 49.1967 111.66 47.9999C108.423 41.7381 101.114 42.1556 95.311 44.2985C75.7263 44.0202 62.6977 87.0459 115.537 84.2629C128.65 83.5671 143.073 94.9776 123.851 104.551C126.753 105.108 129.626 106.583 131.997 108.698C146.784 100.265 144.329 86.6563 135.29 80.3945ZM103.15 44.9664C103.36 44.9664 103.565 45.0284 103.739 45.1447C103.914 45.2609 104.05 45.426 104.13 45.6193C104.21 45.8125 104.231 46.0252 104.19 46.2303C104.149 46.4355 104.048 46.6239 103.9 46.7718C103.752 46.9197 103.563 47.0204 103.357 47.0612C103.152 47.102 102.938 47.0811 102.745 47.0011C102.551 46.921 102.385 46.7854 102.269 46.6115C102.152 46.4376 102.09 46.2332 102.09 46.024C102.087 45.8828 102.111 45.7423 102.163 45.6107C102.214 45.4792 102.292 45.3593 102.391 45.2581C102.49 45.157 102.608 45.0766 102.738 45.0217C102.869 44.9668 103.009 44.9386 103.15 44.9386V44.9664Z" fill="#252B3E"/>
<path fill-rule="evenodd" clip-rule="evenodd" d="M133.894 44.4097C128.091 42.2668 120.754 41.8772 117.546 48.1112C116.932 49.3079 117.016 49.2522 117.769 50.3933C122.009 56.5716 129.263 51.7013 132.415 51.9518C146.365 55.9872 141.734 69.7353 129.04 73.6872C127.695 74.1053 126.325 74.4399 124.939 74.6892C128.879 75.3478 132.618 76.8893 135.875 79.1977C136.719 79.7826 137.529 80.4144 138.302 81.0901C160.9 71.4052 149.461 44.2149 133.894 44.4097ZM126.278 46.9701C126.068 46.9701 125.863 46.9081 125.689 46.7919C125.515 46.6757 125.379 46.5106 125.298 46.3173C125.218 46.1241 125.197 45.9114 125.238 45.7063C125.279 45.5011 125.38 45.3127 125.528 45.1648C125.676 45.0169 125.865 44.9161 126.071 44.8753C126.277 44.8345 126.49 44.8555 126.684 44.9355C126.877 45.0156 127.043 45.1511 127.159 45.325C127.276 45.499 127.338 45.7034 127.338 45.9126C127.338 46.0515 127.311 46.189 127.257 46.3173C127.204 46.4456 127.126 46.5622 127.027 46.6604C126.929 46.7586 126.812 46.8365 126.684 46.8896C126.555 46.9428 126.417 46.9701 126.278 46.9701Z" fill="#252B3E"/>
<path fill-rule="evenodd" clip-rule="evenodd" d="M106.805 42.5729C109.166 43.7933 111.277 45.4454 113.026 47.4432C113.892 45.3383 114.246 43.0591 114.059 40.7917C111.576 40.4021 109.149 41.0422 106.805 42.5729Z" fill="#252B3E"/>
<path fill-rule="evenodd" clip-rule="evenodd" d="M114.505 25.1509C112.412 25.1509 110.32 25.5962 110.125 26.4589V31.7188C111.882 32.4146 112.608 36.3108 114.533 36.784C116.458 36.3108 117.183 32.3868 118.941 31.7188V26.4589C118.717 25.5962 116.597 25.1509 114.505 25.1509Z" fill="#252B3E"/>
<path fill-rule="evenodd" clip-rule="evenodd" d="M119.722 19.446C118.155 20.2961 116.4 20.7414 114.616 20.7414C112.833 20.7414 111.078 20.2961 109.511 19.446C108.897 19.3068 108.228 20.0026 108.646 20.921C111.38 25.7634 117.853 25.7634 120.587 20.921C121.005 20.0026 120.308 19.279 119.722 19.446Z" fill="#252B3E"/>
<path d="M114.477 19.6407C118.807 19.6407 122.317 16.1394 122.317 11.8203C122.317 7.50128 118.807 4 114.477 4C110.148 4 106.638 7.50128 106.638 11.8203C106.638 16.1394 110.148 19.6407 114.477 19.6407Z" fill="#252B3E"/>
<path fill-rule="evenodd" clip-rule="evenodd" d="M109.427 33.1661C95.2268 33.3888 98.3515 21.5052 97.7098 13.7127C97.3471 9.06504 95.1431 7.20041 89.1729 7.17258C81.2218 7.11692 61.5534 17.8038 54.4672 22.3401C63.0041 28.3515 74.303 28.4906 84.1233 25.7911C82.1704 27.1826 76.9813 27.9062 74.6936 28.5185C77.7624 29.576 81.4729 31.6076 83.5095 33.4444C86.5783 33.6393 89.7308 32.4147 92.7996 31.6077C91.4884 32.86 88.4475 33.4444 86.6899 34.0011C89.3961 35.2813 92.4928 36.6171 94.7805 38.6766C102.759 38.8436 102.257 39.595 113.249 39.2888C115.286 39.2332 112.077 35.4204 111.129 33.6949C110.738 32.9435 110.292 33.1661 109.427 33.1661Z" fill="#252B3E"/>
<path fill-rule="evenodd" clip-rule="evenodd" d="M83.9 34.8083C71.9874 42.8513 60.2142 46.4692 48.0226 49.5027C45.5117 50.115 46.1813 50.0315 48.4968 50.8942C66.9656 57.6848 83.0631 44.7437 92.5485 39.5673C94.1108 39.0385 85.8529 33.8064 83.9 34.8083Z" fill="#252B3E"/>
<path fill-rule="evenodd" clip-rule="evenodd" d="M71.2902 29.0474C59.3775 37.0904 36.6403 42.5173 23.3606 43.6027C20.7939 43.8253 22.6073 45.0499 25.0066 45.7735C50.5337 53.4546 72.685 39.6786 82.1426 34.5022C83.7049 33.9734 73.2709 28.0455 71.2902 29.0474Z" fill="#252B3E"/>
<path fill-rule="evenodd" clip-rule="evenodd" d="M52.1796 23.5368C39.5137 29.6595 16.6927 32.1364 3.60837 33.8618C-0.827482 34.4463 6.92832 38.6765 8.79751 39.2609C30.3351 46.135 60.9676 33.5836 70.0346 28.6298C57.843 28.3793 54.1325 22.5349 52.1796 23.5368Z" fill="#252B3E"/>
<path fill-rule="evenodd" clip-rule="evenodd" d="M115.091 40.7639C114.904 43.0312 115.257 45.3105 116.123 47.4153C117.872 45.4175 119.983 43.7654 122.344 42.545C120.001 41.0422 117.601 40.4021 115.091 40.7639Z" fill="#252B3E"/>
<path fill-rule="evenodd" clip-rule="evenodd" d="M131.439 13.7127C130.797 21.5052 133.922 33.3888 119.721 33.1661C118.857 33.1661 118.41 32.9435 117.992 33.6671C117.043 35.3926 113.835 39.2053 115.871 39.261C126.835 39.5671 127.142 39.4001 134.34 38.6487C136.6 36.5893 139.725 35.2534 142.431 33.9732C140.701 33.4166 137.632 32.8322 136.321 31.5798C139.39 32.3869 142.542 33.6392 145.611 33.4166C147.648 31.6076 151.358 29.5482 154.427 28.4906C152.139 27.8784 146.95 27.1548 144.997 25.7633C154.818 28.4628 166.117 28.3236 174.653 22.3123C167.539 17.7759 147.899 7.08909 139.948 7.14475C134.005 7.20041 131.829 9.06503 131.439 13.7127Z" fill="#252B3E"/>
<path fill-rule="evenodd" clip-rule="evenodd" d="M181.154 49.5027C168.963 46.4692 157.19 42.8513 145.277 34.8083C143.296 33.8064 135.038 39.0385 136.6 39.5673C146.086 44.7437 162.183 57.6848 180.652 50.8942C182.996 50.0593 183.665 50.1428 181.154 49.5027Z" fill="#252B3E"/>
<path fill-rule="evenodd" clip-rule="evenodd" d="M205.788 43.6027C192.509 42.4895 169.744 37.0904 157.859 29.0474C155.878 28.0455 145.444 33.9734 147.006 34.5022C156.492 39.6786 178.615 53.4546 204.142 45.7735C206.542 45.0777 208.383 43.8253 205.788 43.6027Z" fill="#252B3E"/>
<path fill-rule="evenodd" clip-rule="evenodd" d="M225.569 33.8897C212.484 32.1363 189.663 29.6595 176.997 23.5646C175.017 22.5627 171.334 28.4071 159.142 28.6854C168.209 33.6392 198.842 46.1628 220.379 39.3166C222.277 38.6765 230.032 34.4741 225.569 33.8897Z" fill="#252B3E"/>
<path d="M110.069 56.9056L110.18 74.1047C113.165 74.2439 116.039 74.1604 118.913 74.2717L119.024 56.9056C118.606 53.5938 115.955 49.5584 114.533 46.0518C113.472 49.1409 110.655 53.3711 110.069 56.9056Z" fill="#252B3E"/>
<path d="M115.593 85.3481C113.863 85.4316 112.05 85.4873 110.236 85.4873L110.348 103.521H110.46C113.222 103.438 115.984 103.382 118.745 103.521L118.857 85.4316L117.462 85.3481H115.593Z" fill="#252B3E"/>
<path d="M114.198 113.401C112.971 113.512 111.687 113.568 110.404 113.568L110.488 127.149L111.799 127.372C113.975 127.734 116.346 128.012 118.55 128.485L118.634 113.512C117.165 113.299 115.676 113.262 114.198 113.401Z" fill="#252B3E"/>
<path d="M110.627 149.748C112.475 150.612 114.411 151.275 116.402 151.724L118.104 152.197L118.243 152.058L118.439 151.891L118.522 139.284C116.067 138.449 113.11 137.92 110.571 137.53L110.627 149.748Z" fill="#252B3E"/>
<path d="M110.739 168.644C111.647 169.35 112.652 169.922 113.724 170.342C114.467 170.636 115.194 170.97 115.9 171.344L116.039 171.233C116.597 170.843 117.434 170.203 118.327 169.452L118.383 160.963C116.039 159.822 112.943 159.043 110.683 158.486L110.739 168.644Z" fill="#252B3E"/>
<path d="M114.393 176.799H114.365C112.719 178.302 111.464 179.972 110.822 181.697L110.878 198.423L114.644 202.987L118.187 198.534L118.243 180.445C117.28 178.932 115.958 177.679 114.393 176.799Z" fill="#252B3E"/>
<path fill-rule="evenodd" clip-rule="evenodd" d="M113.593 175.477C112.821 175.088 112.022 174.756 111.202 174.484L110.149 174.115C105.197 179.225 103.433 188.906 114.503 191.234C106.819 187.6 108.072 180.502 113.593 175.477Z" fill="#7983A7"/>
<path fill-rule="evenodd" clip-rule="evenodd" d="M113.279 170.708C106.79 168.096 104.343 162.134 109.437 156.797L109.238 156.74C107.619 156.285 106.062 155.637 104.599 154.81C100.159 161.084 101.497 170.424 111.828 173.887C121.504 177.124 123.923 186.606 114.531 191.234C127.053 188.565 125.317 175.534 113.279 170.708Z" fill="#7983A7"/>
<path fill-rule="evenodd" clip-rule="evenodd" d="M116.182 151.772C108.612 150.04 98.3097 144.788 106.648 135.221L105.481 135.022C103.569 134.691 101.711 134.099 99.9603 133.262C92.3332 146.293 101.042 153.759 108.953 156.002C114.531 157.592 132.205 160.317 116.723 171.503C117.921 172.209 119.03 173.058 120.024 174.029C132.575 164.86 127.537 154.355 116.182 151.772Z" fill="#7983A7"/>
<path fill-rule="evenodd" clip-rule="evenodd" d="M120.508 128.634C111.913 125.965 90.7392 127.669 103.973 110.919C101.248 110.57 98.585 109.844 96.0611 108.761C86.2142 123.666 96.118 132.665 106.079 134.397C114.303 135.817 134.823 136.867 119.085 151.8C120.947 152.423 122.682 153.375 124.207 154.611C137.896 142.318 130.582 131.757 120.508 128.634Z" fill="#7983A7"/>
<path fill-rule="evenodd" clip-rule="evenodd" d="M123.041 103.084C119.113 102.459 115.214 102.459 110.405 102.629C99.7609 102.998 90.8246 93.7149 102.749 82.9268C98.0248 82.1319 93.3575 81.195 90.2555 79.52C78.6157 96.7243 90.1416 112.594 114.076 110.493C126.683 109.386 138.01 120.487 123.183 128.833C125.663 129.86 127.867 131.455 129.615 133.489C145.836 121.281 134.424 104.872 123.041 103.084Z" fill="#7983A7"/>
<path fill-rule="evenodd" clip-rule="evenodd" d="M135.706 77.93C123.24 69.2711 113.251 75.1478 99.8753 70.9745C86.4995 66.8012 82.2021 52.947 96.4317 48.802C99.6192 48.5181 107.047 53.4864 111.373 47.2122C112.17 46.0482 112.227 46.105 111.601 44.8843C108.299 38.4966 100.843 38.9224 94.9234 41.1084C74.945 40.8245 61.6545 84.7151 115.556 81.8761C128.932 81.1664 143.646 92.8062 124.037 102.572C126.997 103.14 129.928 104.645 132.347 106.802C147.431 98.2003 144.926 84.3177 135.706 77.93ZM102.92 41.7898C103.134 41.7898 103.343 41.853 103.521 41.9716C103.699 42.0901 103.838 42.2586 103.92 42.4558C104.001 42.6529 104.023 42.8698 103.981 43.0791C103.939 43.2883 103.836 43.4806 103.685 43.6314C103.534 43.7823 103.341 43.885 103.131 43.9267C102.922 43.9683 102.704 43.947 102.507 43.8653C102.309 43.7836 102.14 43.6454 102.021 43.4679C101.902 43.2905 101.839 43.082 101.839 42.8686C101.835 42.7246 101.86 42.5812 101.913 42.447C101.966 42.3128 102.045 42.1905 102.145 42.0873C102.246 41.9841 102.367 41.9021 102.5 41.8461C102.633 41.7902 102.776 41.7614 102.92 41.7614V41.7898Z" fill="#7983A7"/>
<path fill-rule="evenodd" clip-rule="evenodd" d="M134.282 41.222C128.362 39.0359 120.878 38.6385 117.605 44.9978C116.979 46.2186 117.064 46.1618 117.833 47.3258C122.158 53.6283 129.558 48.6601 132.774 48.9156C147.003 53.0321 142.279 67.0566 129.33 71.088C127.958 71.5144 126.561 71.8558 125.147 72.11C129.166 72.7819 132.98 74.3544 136.303 76.7092C137.164 77.3059 137.99 77.9504 138.779 78.6397C161.831 68.76 150.162 41.0232 134.282 41.222ZM126.513 43.8338C126.299 43.8338 126.09 43.7705 125.912 43.652C125.734 43.5335 125.595 43.365 125.513 43.1679C125.432 42.9707 125.41 42.7538 125.452 42.5445C125.494 42.3353 125.597 42.143 125.748 41.9922C125.899 41.8413 126.092 41.7385 126.302 41.6969C126.511 41.6553 126.729 41.6767 126.926 41.7583C127.124 41.84 127.293 41.9782 127.412 42.1556C127.531 42.3331 127.594 42.5416 127.594 42.755C127.594 42.8967 127.566 43.037 127.512 43.1679C127.457 43.2987 127.378 43.4177 127.277 43.5178C127.177 43.618 127.058 43.6975 126.926 43.7517C126.795 43.8059 126.655 43.8338 126.513 43.8338Z" fill="#7983A7"/>
<path fill-rule="evenodd" clip-rule="evenodd" d="M106.648 39.3482C109.057 40.5932 111.21 42.2785 112.995 44.3164C113.878 42.1693 114.238 39.8442 114.048 37.5313C111.515 37.1338 109.039 37.7868 106.648 39.3482Z" fill="#7983A7"/>
<path fill-rule="evenodd" clip-rule="evenodd" d="M114.503 21.5762C112.368 21.5762 110.234 22.0304 110.035 22.9105V28.2762C111.828 28.9859 112.568 32.9605 114.531 33.4431C116.495 32.9605 117.235 28.9575 119.028 28.2762V22.9105C118.8 22.0304 116.637 21.5762 114.503 21.5762Z" fill="#7983A7"/>
<path fill-rule="evenodd" clip-rule="evenodd" d="M119.825 15.7565C118.227 16.6237 116.436 17.078 114.617 17.078C112.797 17.078 111.007 16.6237 109.409 15.7565C108.783 15.6146 108.1 16.3243 108.526 17.2611C111.315 22.201 117.918 22.201 120.707 17.2611C121.134 16.3243 120.422 15.5862 119.825 15.7565Z" fill="#7983A7"/>
<path d="M114.475 15.9551C118.892 15.9551 122.472 12.3834 122.472 7.97753C122.472 3.57166 118.892 0 114.475 0C110.058 0 106.478 3.57166 106.478 7.97753C106.478 12.3834 110.058 15.9551 114.475 15.9551Z" fill="#7983A7"/>
<path fill-rule="evenodd" clip-rule="evenodd" d="M109.323 29.7526C94.8376 29.9798 98.025 17.8573 97.3704 9.90815C97.0005 5.16706 94.7522 3.26494 88.6619 3.23655C80.551 3.17977 60.4873 14.0815 53.2586 18.709C61.9671 24.8412 73.4931 24.9831 83.5108 22.2293C81.5187 23.6488 76.2252 24.387 73.8916 25.0115C77.0221 26.0904 80.8071 28.1628 82.8846 30.0365C86.0152 30.2353 89.2311 28.9861 92.3616 28.1628C91.024 29.4404 87.922 30.0365 86.129 30.6043C88.8896 31.9103 92.0486 33.273 94.3822 35.3738C102.522 35.5442 102.009 36.3107 113.222 35.9984C115.3 35.9416 112.027 32.0522 111.059 30.292C110.661 29.5255 110.206 29.7526 109.323 29.7526Z" fill="#7983A7"/>
<path fill-rule="evenodd" clip-rule="evenodd" d="M83.283 31.4275C71.1309 39.6322 59.121 43.3229 46.6843 46.4174C44.123 47.0419 44.806 46.9568 47.1681 47.8368C66.0082 54.764 82.4292 41.5627 92.1053 36.2822C93.6991 35.7428 85.2751 30.4055 83.283 31.4275Z" fill="#7983A7"/>
<path fill-rule="evenodd" clip-rule="evenodd" d="M70.4196 25.5507C58.2675 33.7553 35.0732 39.2913 21.5266 40.3985C18.9083 40.6256 20.7581 41.8748 23.2056 42.6129C49.2459 50.4485 71.8425 36.3956 81.4902 31.1151C83.0839 30.5757 72.4402 24.5286 70.4196 25.5507Z" fill="#7983A7"/>
<path fill-rule="evenodd" clip-rule="evenodd" d="M50.9249 19.9297C38.0044 26.1755 14.7247 28.7022 1.37733 30.4623C-3.14769 31.0585 4.76401 35.3738 6.67078 35.97C28.6413 42.9823 59.8896 30.1785 69.1389 25.1251C56.7022 24.8696 52.9171 18.9077 50.9249 19.9297Z" fill="#7983A7"/>
<path fill-rule="evenodd" clip-rule="evenodd" d="M115.1 37.5027C114.91 39.8156 115.271 42.1407 116.153 44.2878C117.938 42.2499 120.091 40.5646 122.5 39.3196C120.109 37.7866 117.662 37.1336 115.1 37.5027Z" fill="#7983A7"/>
<path fill-rule="evenodd" clip-rule="evenodd" d="M131.777 9.90821C131.123 17.8574 134.31 29.9798 119.824 29.7527C118.942 29.7527 118.487 29.5256 118.06 30.2637C117.092 32.0239 113.819 35.9133 115.897 35.9701C127.081 36.2823 127.395 36.112 134.737 35.3455C137.042 33.2446 140.23 31.8819 142.99 30.576C141.226 30.0082 138.095 29.412 136.758 28.1345C139.888 28.9578 143.104 30.2353 146.235 30.0082C148.312 28.1629 152.097 26.062 155.228 24.9832C152.894 24.3586 147.601 23.6205 145.608 22.201C155.626 24.9548 167.152 24.8129 175.861 18.6807C168.604 14.0531 148.568 3.15145 140.457 3.20823C134.395 3.26501 132.176 5.16712 131.777 9.90821Z" fill="#7983A7"/>
<path fill-rule="evenodd" clip-rule="evenodd" d="M182.492 46.4174C170.056 43.3229 158.046 39.6322 145.894 31.4275C143.873 30.4055 135.449 35.7428 137.043 36.2822C146.719 41.5627 163.14 54.764 181.98 47.8368C184.371 46.9852 185.054 47.0703 182.492 46.4174Z" fill="#7983A7"/>
<path fill-rule="evenodd" clip-rule="evenodd" d="M207.622 40.3985C194.075 39.2629 170.852 33.7553 158.729 25.5507C156.708 24.5286 146.064 30.5757 147.658 31.1151C157.334 36.3956 179.902 50.4485 205.942 42.6129C208.39 41.9032 210.268 40.6256 207.622 40.3985Z" fill="#7983A7"/>
<path fill-rule="evenodd" clip-rule="evenodd" d="M227.799 30.4906C214.452 28.7021 191.172 26.1754 178.252 19.958C176.231 18.936 172.475 24.8979 160.038 25.1818C169.287 30.2351 200.535 43.0105 222.506 36.0266C224.441 35.3737 232.353 31.0868 227.799 30.4906Z" fill="#7983A7"/>
<path d="M109.978 53.969L110.092 71.5139C113.137 71.6558 116.068 71.5707 118.999 71.6842L119.113 53.969C118.686 50.5906 115.983 46.4741 114.531 42.897C113.45 46.0482 110.575 50.3635 109.978 53.969Z" fill="#7983A7"/>
<path d="M115.613 82.9834C113.848 83.0686 111.999 83.1253 110.149 83.1253L110.263 101.522H110.376C113.194 101.437 116.011 101.38 118.829 101.522L118.943 83.0686L117.52 82.9834H115.613Z" fill="#7983A7"/>
<path d="M114.19 111.6C112.938 111.714 111.629 111.771 110.32 111.771L110.405 125.625L111.742 125.852C113.962 126.221 116.381 126.505 118.63 126.988L118.715 111.714C117.217 111.497 115.697 111.459 114.19 111.6Z" fill="#7983A7"/>
<path d="M110.547 148.677C112.432 149.559 114.407 150.235 116.438 150.693L118.174 151.176L118.317 151.034L118.516 150.863L118.601 138.003C116.097 137.151 113.08 136.612 110.49 136.214L110.547 148.677Z" fill="#7983A7"/>
<path d="M110.661 167.954C111.588 168.674 112.613 169.257 113.706 169.686C114.465 169.985 115.206 170.326 115.926 170.708L116.068 170.594C116.638 170.197 117.491 169.544 118.402 168.777L118.459 160.119C116.068 158.955 112.909 158.16 110.604 157.592L110.661 167.954Z" fill="#7983A7"/>
<path d="M114.389 176.272H114.36C112.681 177.805 111.401 179.508 110.746 181.269L110.803 198.331L114.645 202.987L118.259 198.444L118.316 179.991C117.334 178.448 115.985 177.17 114.389 176.272Z" fill="#7983A7"/>
</svg>
