<svg width="26" height="24" viewBox="0 0 26 24" fill="none" xmlns="http://www.w3.org/2000/svg">
<path d="M25.1875 24C24.9123 24 24.6502 23.8593 24.4985 23.616L24.1768 23.0978C22.8324 20.9302 20.5141 19.6363 17.9758 19.6363H17.3334V22.0909C17.3334 22.4258 17.1308 22.7269 16.8221 22.8513C16.5123 22.9745 16.1602 22.8971 15.9316 22.6538L11.0567 17.4719C10.7598 17.1567 10.7598 16.6625 11.0567 16.3472L15.9316 11.1653C16.1602 10.921 16.5123 10.8457 16.8221 10.9679C17.1308 11.0912 17.3334 11.3923 17.3334 11.7272V14.1861C22.1369 14.3301 26 18.3109 26 23.1818C26 23.5462 25.7595 23.8669 25.4118 23.9684C25.337 23.9902 25.2623 24 25.1875 24ZM16.5209 17.9999H17.9758C20.1078 17.9999 22.112 18.7472 23.6904 20.0727C22.5247 17.5614 19.9919 15.8181 17.0615 15.8181H16.5199C16.0714 15.8181 15.7074 15.4516 15.7074 14.9999V13.7803L12.7651 16.909L15.7084 20.0378V18.8181C15.7084 18.3665 16.0724 17.9999 16.5209 17.9999Z" fill="white"/>
<path d="M10.021 15.2729H2.43774C1.09334 15.2729 0.000266823 14.1721 0.000266823 12.8183V2.45457C0.000266823 1.10074 1.09334 0 2.43774 0H21.3959C22.7403 0 23.8333 1.10074 23.8333 2.45457V12.2728C23.8333 12.7245 23.4693 13.091 23.0208 13.091C22.5723 13.091 22.2084 12.7245 22.2084 12.2728V2.45457C22.2084 2.00293 21.8444 1.63638 21.3959 1.63638H2.43774C1.98924 1.63638 1.62525 2.00293 1.62525 2.45457V12.8183C1.62525 13.2699 1.98924 13.6365 2.43774 13.6365H10.021C10.4695 13.6365 10.8335 14.003 10.8335 14.4547C10.8335 14.9063 10.4695 15.2729 10.021 15.2729Z" fill="white"/>
<path d="M11.9178 9.62942C11.4801 9.62942 11.0425 9.52906 10.6438 9.32833L0.451922 4.24574C0.0500098 4.04501 -0.114655 3.55519 0.0846761 3.14937C0.284007 2.74464 0.771502 2.57991 1.17341 2.77955L11.3675 7.86322C11.7065 8.0345 12.1258 8.0345 12.4627 7.86431L22.66 2.77955C23.0619 2.57882 23.5505 2.74464 23.7487 3.14937C23.9481 3.55519 23.7834 4.04501 23.3815 4.24574L13.1874 9.32942C12.7909 9.52906 12.3544 9.62942 11.9178 9.62942Z" fill="white"/>
</svg>
