<svg width="16" height="16" viewBox="0 0 16 16" fill="none" xmlns="http://www.w3.org/2000/svg">
<path d="M11.5647 1.98419C10.2851 0.704656 8.58397 0 6.77443 0C4.96489 0 3.2637 0.704656 1.98419 1.98419C0.704659 3.26369 0 4.96488 0 6.77438C0 8.58391 0.704659 10.2851 1.98419 11.5646C3.2637 12.8441 4.96493 13.5488 6.77443 13.5488C8.58394 13.5488 10.2851 12.8441 11.5647 11.5646C12.8442 10.2851 13.5489 8.58391 13.5489 6.77438C13.5488 4.96488 12.8442 3.26369 11.5647 1.98419ZM6.7744 12.2561C3.75173 12.2561 1.29263 9.79703 1.29263 6.77438C1.29263 3.75172 3.75176 1.29262 6.77443 1.29262C9.7971 1.29262 12.2562 3.75172 12.2562 6.77438C12.2562 9.79703 9.79707 12.2561 6.7744 12.2561Z" fill="#8698A0"/>
<path d="M15.8107 14.8967L11.5619 10.6479C11.3095 10.3955 10.9003 10.3955 10.6479 10.6479C10.3955 10.9003 10.3955 11.3095 10.6479 11.5619L14.8967 15.8107C15.0228 15.9369 15.1883 16 15.3537 16C15.5191 16 15.6845 15.9369 15.8107 15.8107C16.0631 15.5583 16.0631 15.1491 15.8107 14.8967Z" fill="#8698A0"/>
</svg>
